<svg xmlns="http://www.w3.org/2000/svg" version="1.1" xmlns:xlink="http://www.w3.org/1999/xlink" xmlns:svgjs="http://svgjs.com/svgjs" width="1920" height="1080" preserveAspectRatio="none" viewBox="0 0 1920 1080"><g mask="url(&quot;#SvgjsMask3239&quot;)" fill="none"><rect width="1920" height="1080" x="0" y="0" fill="url(#SvgjsLinearGradient3240)"></rect><path d="M -289.17480293222764,187 C -161.17,305.8 94.83,728 350.82519706777236,781 C 606.83,834 734.83,466.2 990.8251970677724,452 C 1246.83,437.8 1374.83,698 1630.8251970677725,710 C 1886.83,722 2212.99,479.8 2270.8251970677725,512 C 2328.66,544.2 1990.17,799.2 1920,871" stroke="rgba(104, 177, 255, 1)" stroke-width="2"></path><path d="M -975.0271894761586,473 C -847.03,491.2 -591.03,565.6 -335.0271894761586,564 C -79.03,562.4 48.97,440.4 304.9728105238414,465 C 560.97,489.6 688.97,758.4 944.9728105238414,687 C 1200.97,615.6 1389.97,102.4 1584.9728105238414,108 C 1779.98,113.6 1852.99,593.6 1920,715" stroke="rgba(254, 144, 144, 1)" stroke-width="2"></path><path d="M -185.119492343224,385 C -57.12,501.6 198.88,950 454.880507656776,968 C 710.88,986 838.88,480.6 1094.880507656776,475 C 1350.88,469.4 1478.88,956.6 1734.880507656776,940 C 1990.88,923.4 2337.86,453.4 2374.880507656776,392 C 2411.9,330.6 2010.98,584.8 1920,633" stroke="rgba(0, 170, 104, 1)" stroke-width="2"></path></g><defs><mask id="SvgjsMask3239"><rect width="1920" height="1080" fill="#ffffff"></rect></mask><linearGradient x1="10.94%" y1="-19.44%" x2="89.06%" y2="119.44%" gradientUnits="userSpaceOnUse" id="SvgjsLinearGradient3240"><stop stop-color="rgba(74, 61, 160, 1)" offset="0.16"></stop><stop stop-color="rgba(76, 119, 147, 1)" offset="0.59"></stop></linearGradient></defs></svg>